# xmcd CD database file
#
# Track frame offsets:
#	150
#	19160
#	40882
#	59745
#	84192
#	102947
#	125857
#	158727
#	177807
#	204492
#	227937
#	253860
#	283400
#	307125
#
# Disc length: 4642 seconds
#
# Revision: 0
# Processed by: cddbd v1.4PL0 Copyright (c) Steve Scherf et al.
# Submitted via: CDex 1.50beta10
#
DISCID=ce12200e
DTITLE=Tina Turner - Best Of (Live)
DYEAR=1993
DGENRE=Blues
TTITLE0=Steamy Windows
TTITLE1=Typical Male
TTITLE2=Foreign Affair
TTITLE3=Undercover Agent Of The Blues
TTITLE4=Ask Me How I Feel
TTITLE5=We Don't Need Another Hero
TTITLE6=Private Dancer
TTITLE7=Nutbush City Limits
TTITLE8=Addicted To Love
TTITLE9=The Best
TTITLE10=I Don't Wanna Lose You
TTITLE11=What's Love Got To Do With It
TTITLE12=Let's Stay Together
TTITLE13=Proud Mary
EXTD=YEAR: 1993
EXTT0=
EXTT1=
EXTT2=
EXTT3=
EXTT4=
EXTT5=
EXTT6=
EXTT7=
EXTT8=
EXTT9=
EXTT10=
EXTT11=
EXTT12=
EXTT13=
PLAYORDER=
